<svg width="24" height="25" viewBox="0 0 24 25" fill="none"
  xmlns="http://www.w3.org/2000/svg">
  <path fill-rule="evenodd" clip-rule="evenodd" d="M13 5.25C13 4.83579 12.6642 4.5 12.25 4.5C11.8358 4.5 11.5 4.83579 11.5 5.25V10.9394L7.47704 6.91642C7.18414 6.62352 6.70927 6.62352 6.41638 6.91642C6.12348 7.20931 6.12348 7.68418 6.41638 7.97708L10.4394 12.0001H4.75C4.33579 12.0001 4 12.3358 4 12.7501C4 13.1643 4.33579 13.5001 4.75 13.5001H10.4393L6.41637 17.523C6.12348 17.8159 6.12348 18.2908 6.41637 18.5837C6.70927 18.8766 7.18414 18.8766 7.47703 18.5837L11.5 14.5607V20.25C11.5 20.6642 11.8358 21 12.25 21C12.6642 21 13 20.6642 13 20.25V14.5607L17.023 18.5837C17.3159 18.8766 17.7908 18.8766 18.0836 18.5837C18.3765 18.2908 18.3765 17.8159 18.0836 17.523L14.0607 13.5001H19.75C20.1642 13.5001 20.5 13.1643 20.5 12.7501C20.5 12.3358 20.1642 12.0001 19.75 12.0001H14.0607L18.0836 7.97708C18.3765 7.68418 18.3765 7.20931 18.0836 6.91642C17.7908 6.62352 17.3159 6.62352 17.023 6.91642L13 10.9394V5.25Z" fill="#22272F"/>
</svg>
  