<svg width="24" height="24" viewBox="0 0 24 24" fill="none" xmlns="http://www.w3.org/2000/svg">
<path fill-rule="evenodd" clip-rule="evenodd" d="M22 1.25L21.9107 1.25C18.9817 1.24993 16.8839 1.24988 14.7644 1.95106C14.3712 2.08117 14.1579 2.50543 14.288 2.89868C14.4181 3.29193 14.8423 3.50525 15.2356 3.37515C16.9445 2.80979 18.647 2.75565 21.25 2.75053V12.6571C21.25 13.2198 21.2495 13.5984 21.2266 13.8898C21.2043 14.1736 21.1644 14.3084 21.1214 14.3958C21.0027 14.6368 20.838 14.8092 20.6027 14.9387C20.5218 14.9832 20.3841 15.0308 20.0784 15.0676C19.7689 15.1049 19.3626 15.1239 18.7657 15.151C16.5352 15.2526 14.782 15.5917 12.75 16.6851V4.14286C12.75 3.88766 12.6202 3.64998 12.4056 3.51198C10.6649 2.39295 9.18318 1.81613 7.54619 1.52913C5.95395 1.24997 4.23099 1.24999 2.05378 1.25L2 1.25C1.80109 1.25 1.61032 1.32902 1.46967 1.46967C1.32902 1.61033 1.25 1.80109 1.25 2V12.6571V12.6866V12.6866C1.24999 13.2123 1.24998 13.6501 1.27802 14.0072C1.30718 14.3786 1.37018 14.728 1.53292 15.0585C1.78743 15.5753 2.16945 15.9751 2.67415 16.2528C3.00136 16.4329 3.3604 16.5109 3.74223 16.5568C4.11388 16.6016 4.57637 16.6226 5.13741 16.6482L5.16613 16.6495C7.59527 16.76 9.29896 17.1552 11.5944 18.6309C11.8415 18.7897 12.1585 18.7897 12.4056 18.6309C14.701 17.1552 16.4047 16.76 18.8339 16.6495L18.8626 16.6482C19.4236 16.6226 19.8861 16.6016 20.2578 16.5568C20.6396 16.5109 20.9986 16.4329 21.3258 16.2528C21.8306 15.9751 22.2126 15.5753 22.4671 15.0585C22.6298 14.728 22.6928 14.3786 22.722 14.0072C22.75 13.6501 22.75 13.2123 22.75 12.6866V12.6571V2C22.75 1.58579 22.4142 1.25 22 1.25ZM11.25 4.55774V16.6851C9.21804 15.5917 7.46482 15.2526 5.23434 15.151C4.63738 15.1239 4.23108 15.1049 3.92156 15.0676C3.61591 15.0308 3.47818 14.9832 3.39734 14.9387C3.16199 14.8092 2.99728 14.6368 2.8786 14.3958C2.83559 14.3084 2.7957 14.1736 2.77342 13.8898C2.75054 13.5984 2.75 13.2198 2.75 12.6571V2.75048C4.60749 2.75389 6.00403 2.78163 7.28715 3.00659C8.60209 3.23713 9.8118 3.67897 11.25 4.55774ZM14.7131 4.23004C14.2989 4.23004 13.9631 4.56583 13.9631 4.98004C13.9631 5.39426 14.2989 5.73004 14.7131 5.73004H18.3599L14.0771 12.5825C13.9326 12.8137 13.925 13.1052 14.0571 13.3436C14.1893 13.5821 14.4405 13.73 14.7131 13.73H19.7131C20.1273 13.73 20.4631 13.3943 20.4631 12.98C20.4631 12.5658 20.1273 12.23 19.7131 12.23H16.0663L20.3491 5.37754C20.4936 5.14634 20.5013 4.85493 20.3691 4.61647C20.2369 4.378 19.9858 4.23004 19.7131 4.23004H14.7131ZM3.79181 7.48004C3.79181 5.68512 5.24688 4.23004 7.04181 4.23004C8.83673 4.23004 10.2918 5.68512 10.2918 7.48004V9.98004V12.98C10.2918 13.3943 9.95602 13.73 9.54181 13.73C9.1276 13.73 8.79181 13.3943 8.79181 12.98V10.73H5.29181V12.98C5.29181 13.3943 4.95602 13.73 4.54181 13.73C4.1276 13.73 3.79181 13.3943 3.79181 12.98V9.98004V7.48004ZM8.79181 9.23004V7.48004C8.79181 6.51354 8.00831 5.73004 7.04181 5.73004C6.07531 5.73004 5.29181 6.51354 5.29181 7.48004V9.23004H8.79181ZM3 18.75C2.58579 18.75 2.25 19.0858 2.25 19.5C2.25 19.9142 2.58579 20.25 3 20.25C4.97377 20.25 6.39687 20.3743 7.67766 20.7236C8.95056 21.0707 10.1262 21.6522 11.584 22.624C11.8359 22.792 12.1641 22.792 12.416 22.624C13.8738 21.6522 15.0494 21.0707 16.3223 20.7236C17.6031 20.3743 19.0262 20.25 21 20.25C21.4142 20.25 21.75 19.9142 21.75 19.5C21.75 19.0858 21.4142 18.75 21 18.75C18.9738 18.75 17.3969 18.8757 15.9277 19.2764C14.585 19.6426 13.3686 20.2283 12 21.1041C10.6314 20.2283 9.41499 19.6426 8.07234 19.2764C6.60313 18.8757 5.02624 18.75 3 18.75Z" fill="#22272F"/>
</svg>
