<svg xmlns="http://www.w3.org/2000/svg" version="1.1" xmlns:xlink="http://www.w3.org/1999/xlink" xmlns:svgjs="http://svgjs.com/svgjs" width="512" height="512" x="0" y="0" viewBox="0 0 512 512" style="enable-background:new 0 0 512 512" xml:space="preserve" class=""><g>
<path d="M256,0C114.617,0,0,114.615,0,256s114.617,256,256,256s256-114.615,256-256S397.383,0,256,0z M224,320
	c0,8.836-7.164,16-16,16h-32c-8.836,0-16-7.164-16-16V192c0-8.836,7.164-16,16-16h32c8.836,0,16,7.164,16,16V320z M352,320
	c0,8.836-7.164,16-16,16h-32c-8.836,0-16-7.164-16-16V192c0-8.836,7.164-16,16-16h32c8.836,0,16,7.164,16,16V320z" fill="#000000" data-original="#000000"></path>
</g>
</svg>