<svg width="24" height="24" viewBox="0 0 24 24" fill="none" xmlns="http://www.w3.org/2000/svg">
<path fill-rule="evenodd" clip-rule="evenodd" d="M2.75 12C2.75 6.89137 6.89137 2.75 12 2.75C13.3169 2.75 14.5677 3.02475 15.6997 3.51935C16.0793 3.68519 16.5214 3.51193 16.6873 3.13237C16.8531 2.7528 16.6798 2.31066 16.3003 2.14482C14.9824 1.56904 13.5275 1.25 12 1.25C6.06294 1.25 1.25 6.06294 1.25 12C1.25 17.9371 6.06294 22.75 12 22.75C17.9371 22.75 22.75 17.9371 22.75 12C22.75 9.58034 21.9497 7.34544 20.5996 5.54852C20.3508 5.21736 19.8807 5.1506 19.5495 5.3994C19.2183 5.64821 19.1516 6.11837 19.4004 6.44953C20.562 7.99559 21.25 9.91636 21.25 12C21.25 17.1086 17.1086 21.25 12 21.25C6.89137 21.25 2.75 17.1086 2.75 12ZM12.75 8C12.75 7.58579 12.4142 7.25 12 7.25C11.5858 7.25 11.25 7.58579 11.25 8V11.25H8C7.58579 11.25 7.25 11.5858 7.25 12C7.25 12.4142 7.58579 12.75 8 12.75H11.25V16C11.25 16.4142 11.5858 16.75 12 16.75C12.4142 16.75 12.75 16.4142 12.75 16V12.75H16C16.4142 12.75 16.75 12.4142 16.75 12C16.75 11.5858 16.4142 11.25 16 11.25H12.75V8Z" fill="#22272F"/>
</svg>
