<svg width="24" height="24" viewBox="0 0 24 24" fill="none" xmlns="http://www.w3.org/2000/svg">
	<path fill-rule="evenodd" clip-rule="evenodd" d="M5.34489 21.1697C5.26585 21.0632 5.22633 21.01 5.19861 20.9785C5.17089 20.9471 5.12033 20.8986 5.01921 20.8015C4.55779 20.3588 4.17059 19.8396 3.87671 19.2628C3.54138 18.6047 3.39252 17.8776 3.32061 16.9974C3.24999 16.1331 3.25 15.0576 3.25 13.6859V13.6524V10.3475V10.314C3.25 8.94225 3.24999 7.86682 3.32061 7.00247C3.39252 6.12233 3.54138 5.39523 3.87671 4.7371C4.17059 4.16033 4.55778 3.64104 5.0192 3.19835C5.12032 3.10133 5.17088 3.05282 5.1986 3.02136C5.22632 2.9899 5.26584 2.93666 5.34488 2.83017C6.46742 1.3177 8.18562 0.276407 10.1589 0.0468801C10.5619 0 11.0412 0 11.9997 0C12.9583 0 13.4376 0 13.8406 0.0468801C15.8133 0.276345 17.5311 1.31714 18.6537 2.82894C18.7328 2.93546 18.7723 2.98872 18.8001 3.02019C18.8278 3.05165 18.8784 3.10015 18.9795 3.19715L18.9796 3.1972C19.4415 3.64014 19.8291 4.15983 20.1233 4.7371C20.4586 5.39523 20.6075 6.12233 20.6794 7.00247C20.75 7.86678 20.75 8.94216 20.75 10.3138V10.3138V10.3139V10.3139V10.3475V13.6524V13.6859V13.686V13.686V13.6861C20.75 15.0577 20.75 16.1331 20.6794 16.9974C20.6075 17.8775 20.4586 18.6047 20.1233 19.2628C19.8291 19.8401 19.4415 20.3597 18.9796 20.8027C18.8784 20.8997 18.8278 20.9482 18.8 20.9797C18.7723 21.0112 18.7328 21.0644 18.6537 21.1709C17.5311 22.6827 15.8133 23.7235 13.8406 23.953C13.4376 23.9999 12.9583 23.9999 11.9997 23.9999C11.0412 23.9999 10.5619 23.9999 10.1589 23.953C8.18563 23.7235 6.46743 22.6822 5.34489 21.1697ZM5.55639 7.19234C5.97044 7.18059 6.31112 7.50682 6.31733 7.92099L6.43889 16.0365C6.44509 16.4507 6.11447 16.7959 5.70042 16.8077C5.28637 16.8194 4.94569 16.4932 4.93949 16.079L4.81793 7.96354C4.81173 7.54937 5.14235 7.20409 5.55639 7.19234ZM19.0605 7.92099C19.0543 7.50682 18.7136 7.18059 18.2996 7.19234C17.8855 7.20409 17.5549 7.54937 17.5611 7.96354L17.6827 16.079C17.6889 16.4932 18.0295 16.8194 18.4436 16.8077C18.8576 16.7959 19.1883 16.4507 19.182 16.0365L19.0605 7.92099Z" fill="#22272F"/>
	</svg>

	