<svg width="24" height="24" viewBox="0 0 24 24" fill="none" xmlns="http://www.w3.org/2000/svg">
<path fill-rule="evenodd" clip-rule="evenodd" d="M7.41099 3.92934C5.86777 4.42056 4.74988 5.86544 4.74988 7.57143V14C4.74988 15.4125 4.75046 16.4268 4.81551 17.2229C4.87984 18.0103 5.00347 18.518 5.2131 18.9295C5.62056 19.7291 6.27073 20.3793 7.07042 20.7868C7.48185 20.9964 7.98958 21.12 8.77696 21.1844C9.5731 21.2494 10.5874 21.25 11.9999 21.25C13.4124 21.25 14.4267 21.2494 15.2228 21.1844C16.0102 21.12 16.5179 20.9964 16.9293 20.7868C17.729 20.3793 18.3792 19.7291 18.7867 18.9295C18.9963 18.518 19.1199 18.0103 19.1842 17.2229C19.2493 16.4268 19.2499 15.4125 19.2499 14V7.57143C19.2499 5.86552 18.1321 4.42069 16.589 3.92941C16.2079 4.99084 15.1926 5.75 14 5.75H10C8.80737 5.75 7.79207 4.99081 7.41099 3.92934ZM16.6841 2.39901C19.0171 2.96337 20.7499 5.06504 20.7499 7.57143V14V14.0336V14.0336V14.0337V14.0337C20.7499 15.4054 20.7499 16.4807 20.6793 17.3451C20.6074 18.2252 20.4585 18.9523 20.1232 19.6104C19.5719 20.6924 18.6923 21.572 17.6103 22.1233C16.9522 22.4586 16.2251 22.6075 15.3449 22.6794C14.4806 22.75 13.4052 22.75 12.0336 22.75H12.0336H12.0335H12.0335H11.9999H11.9663H11.9663H11.9662H11.9662C10.5945 22.75 9.51913 22.75 8.65481 22.6794C7.77467 22.6075 7.04756 22.4586 6.38943 22.1233C5.3075 21.572 4.42786 20.6924 3.87659 19.6104C3.54126 18.9523 3.3924 18.2252 3.32049 17.3451C3.24987 16.4807 3.24987 15.4053 3.24988 14.0336V14V7.57143C3.24988 5.06495 4.98279 2.96321 7.31588 2.39894C7.59004 1.16924 8.68767 0.25 10 0.25H14C15.3124 0.25 16.41 1.16927 16.6841 2.39901ZM8.75 3C8.75 2.30964 9.30964 1.75 10 1.75H14C14.6904 1.75 15.25 2.30964 15.25 3C15.25 3.69036 14.6904 4.25 14 4.25H10C9.30964 4.25 8.75 3.69036 8.75 3ZM8.24988 11C8.24988 10.5858 8.58566 10.25 8.99988 10.25H14.9999C15.4141 10.25 15.7499 10.5858 15.7499 11C15.7499 11.4142 15.4141 11.75 14.9999 11.75H8.99988C8.58566 11.75 8.24988 11.4142 8.24988 11ZM8.99988 14.25C8.58566 14.25 8.24988 14.5858 8.24988 15C8.24988 15.4142 8.58566 15.75 8.99988 15.75H12.9999C13.4141 15.75 13.7499 15.4142 13.7499 15C13.7499 14.5858 13.4141 14.25 12.9999 14.25H8.99988Z" fill="#22272F"/>
</svg>
