<svg xmlns="http://www.w3.org/2000/svg" viewBox="0 0 767 613">
  <rect width="767" height="613" fill="#e0e1e2"/>
  <path d="M169.41,401.35a81.13,81.13,0,0,1-8.66-11.84c-17.4-29.06-14.75-65.27-14.93-99.14-.2-38.33-3.47-78.69,26.06-107.58,26.88-26.29,68.63-35.23,104.56-25.63,24.53,6.55,47.51,21.55,59.9,43.71C351.74,228.44,349,262,349.06,293.6c.08,32.85,3.1,68.17-14.24,96.07-13.69,22-38.36,35.5-63.74,40.83-20.49,4.3-42.17,3.83-62-2.95A93.22,93.22,0,0,1,169.41,401.35Zm3-163.38a8.57,8.57,0,0,1,8.87,8.41l1.87,94.14a8.84,8.84,0,0,1-8.52,9,8.56,8.56,0,0,1-8.87-8.41L163.88,247A8.85,8.85,0,0,1,172.41,238Zm156.7,7.68a8.56,8.56,0,0,0-8.87-8.41,8.84,8.84,0,0,0-8.52,9l1.87,94.14a8.57,8.57,0,0,0,8.87,8.41,8.86,8.86,0,0,0,8.53-9Z" transform="translate(0 0)" fill="#fff" stroke="#000" stroke-miterlimit="10" stroke-width="7" fill-rule="evenodd"/>
  <path d="M335.17,366.7c-13.69,22-38.36,35.5-63.74,40.83-20.49,4.31-42.17,3.83-62-2.95a93.22,93.22,0,0,1-39.69-26.2,81.13,81.13,0,0,1-8.66-11.84c-12.34-20.61-14.59-44.82-14.93-69.24-.09,31.83-1.29,65.15,14.93,92.24a81.13,81.13,0,0,0,8.66,11.84,93.22,93.22,0,0,0,39.69,26.2c19.81,6.78,41.49,7.26,62,2.95,25.38-5.33,50.05-18.8,63.74-40.83,15-24.19,14.76-53.95,14.37-82.85C349,328.11,346.23,348.91,335.17,366.7Z" transform="translate(0 0)" fill-rule="evenodd"/>
  <ellipse cx="638.04" cy="542.31" rx="31.17" ry="28.73" fill="#fff"/>
  <ellipse cx="660.9" cy="520.49" rx="25.97" ry="23.94" fill="none" stroke="#000" stroke-miterlimit="10" stroke-width="7"/>
  <path d="M156.48,229.09c1.31-1.08,4.5-4.28,7.35-7.14,20.64-20.7,31.65-30,38.41-26.58,2.88,1.44,3.44,4.87,5.62,25.55,1.06,10,2.25,21.37,3.93,30.75,2.37,13.2,4.59,15.85,5.15,16.33h61.45c.57-.48,2.78-3.13,5.15-16.33,1.68-9.38,2.88-20.73,3.93-30.75,2.18-20.68,2.74-24.11,5.63-25.55,6.75-3.38,17.76,5.88,38.4,26.58,2.85,2.86,6,6.06,7.35,7.14a16.46,16.46,0,0,0,5.12-3.18,3.34,3.34,0,0,1,1.18-.68,89.65,89.65,0,0,0-8.64-22.35c-12.39-22.17-35.37-37.17-59.9-43.72-35.93-9.6-77.68-.66-104.55,25.63-12.1,11.83-18.69,25.59-22.25,40.34a3.6,3.6,0,0,1,1.56.78A16.32,16.32,0,0,0,156.48,229.09Z" transform="translate(0 0)"/>
  <path d="M262.79,205.59H232.2A6.79,6.79,0,0,0,227,208l-14.15,17.09a5.16,5.16,0,0,0-.49,5.88l15.12,26.19a5.36,5.36,0,0,0,4.64,2.68h30.75a5.35,5.35,0,0,0,4.64-2.68L282.64,231a5.16,5.16,0,0,0-.5-5.88L268,208A6.77,6.77,0,0,0,262.79,205.59Z" transform="translate(0 0)" fill="none" stroke="#e0e1e2" stroke-miterlimit="10" stroke-width="5"/>
  <path d="M242.38,269.5a3.5,3.5,0,0,1,3.5-3.5h32.34c.57-.48,2.78-3.13,5.15-16.33,1.68-9.38,2.88-20.73,3.93-30.75,2.18-20.68,2.74-24.11,5.63-25.55,6.75-3.38,17.76,5.88,38.4,26.58,2.85,2.86,6,6.06,7.35,7.14a16.46,16.46,0,0,0,5.12-3.18,3.5,3.5,0,0,1,4.63,5.25c-2.14,1.89-7.61,6.14-12.05,4.66-1.52-.51-3-1.92-10-8.93-5.26-5.27-11.8-11.83-17.94-17.09-6.8-5.83-10.18-7.47-11.64-7.93-.81,3.45-1.71,12.06-2.53,19.78-4,37.62-7,53.35-15.77,53.35H245.88A3.5,3.5,0,0,1,242.38,269.5Zm53.48-69.8Z" transform="translate(0 0)"/>
  <path d="M267.93,314.11" transform="translate(0 0)" fill="none"/>
  <path d="M401.11,409.11,265.86,273.86a25.09,25.09,0,0,1,0-35.47h0a25.08,25.08,0,0,1,35.48,0l60.23,59.78a2.57,2.57,0,0,0,3.62,0h0a2.57,2.57,0,0,0,.13-3.48,25.2,25.2,0,0,1,1.35-34h0a25.38,25.38,0,0,1,35.89,0l15.69,15.69a2,2,0,0,0,2.82,0h0a2,2,0,0,0,0-2.83l-3.16-3.16a25.1,25.1,0,0,1,0-35.51h0a25.1,25.1,0,0,1,35.51,0l27.93,27.93a2.4,2.4,0,0,0,3.38,0h0a2.4,2.4,0,0,0,0-3.38l-2.2-2.2a26.5,26.5,0,0,1,0-37.48h0a26.5,26.5,0,0,1,37.48,0L631.84,331.55a65.33,65.33,0,0,1,0,92.4l-57.55,57.56c-23.56,23.56-61.8,21-93.53,10.79L369.7,466.54a29.07,29.07,0,0,1-19.91-31.69h0a29.06,29.06,0,0,1,35.49-24.28l13.26,3.14A2.74,2.74,0,0,0,401.11,409.11Z" transform="translate(0 0)" fill="#e0e1e2"/>
  <path d="M396.62,421.66,261.38,286.42a25.08,25.08,0,0,1,0-35.48h0a25.1,25.1,0,0,1,35.48,0l60.23,59.78a2.56,2.56,0,0,0,3.62,0h0a2.58,2.58,0,0,0,.12-3.49,25.2,25.2,0,0,1,1.35-34h0a25.38,25.38,0,0,1,35.89,0l15.69,15.69a2,2,0,0,0,2.83,0h0a2,2,0,0,0,0-2.83l-3.17-3.17a25.12,25.12,0,0,1,0-35.51h0a25.12,25.12,0,0,1,35.51,0l27.94,27.93a2.38,2.38,0,0,0,3.38,0h0a2.4,2.4,0,0,0,0-3.38l-2.2-2.2a26.49,26.49,0,0,1,0-37.47h0a26.49,26.49,0,0,1,37.47,0L627.36,344.1a65.34,65.34,0,0,1,0,92.41l-57.55,57.55c-23.57,23.56-61.8,21-93.53,10.8L365.21,479.09A29.06,29.06,0,0,1,345.3,447.4h0a29.07,29.07,0,0,1,35.49-24.28l13.27,3.14A2.74,2.74,0,0,0,396.62,421.66Z" transform="translate(0 0)" fill="#fff" stroke="#fff" stroke-miterlimit="10"/>
  <path d="M408.64,415.23,266.57,273.16a25.1,25.1,0,0,1,0-35.48h0a25.08,25.08,0,0,1,35.48,0l62.49,62.49a2.54,2.54,0,0,0,3.59,0h0a2.53,2.53,0,0,0,0-3.58l-.75-.75a25.38,25.38,0,0,1,0-35.89h0a25.38,25.38,0,0,1,35.89,0l17.8,17.8a2,2,0,0,0,2.83,0h0a2,2,0,0,0,0-2.82l-5.28-5.29a25.1,25.1,0,0,1,0-35.51h0a25.1,25.1,0,0,1,35.51,0l30.05,30.05a2.4,2.4,0,0,0,3.38,0h0a2.4,2.4,0,0,0,0-3.38l-4.32-4.32a26.5,26.5,0,0,1,0-37.48h0a26.5,26.5,0,0,1,37.48,0L632.55,330.84a65.34,65.34,0,0,1,0,92.41L575,480.8c-23.56,23.56-61.8,21-93.53,10.79L370.4,465.83a29.08,29.08,0,0,1-19.91-31.69h0A29.08,29.08,0,0,1,386,409.86Z" transform="translate(0 0)" fill="none" stroke="#000" stroke-linecap="round" stroke-linejoin="round" stroke-width="7"/>
  <path d="M249.11,273H216.5c-8.74,0-11.81-15.73-15.77-53.35-.82-7.72-1.72-16.33-2.53-19.78-1.46.46-4.84,2.1-11.64,7.93-6.14,5.26-12.68,11.82-17.94,17.09-7,7-8.49,8.42-10,8.93-4.44,1.48-9.9-2.77-12.05-4.66a3.5,3.5,0,1,1,4.64-5.25,16.32,16.32,0,0,0,5.11,3.18c1.31-1.08,4.5-4.28,7.35-7.14,20.64-20.7,31.65-30,38.41-26.58,2.88,1.44,3.44,4.87,5.62,25.55,1.06,10,2.25,21.37,3.93,30.75,2.37,13.2,4.59,15.85,5.15,16.33h32.34a3.5,3.5,0,0,1,0,7Zm-50-73.3Z" transform="translate(0 0)"/>
  <rect x="568.75" y="62.57" width="52.74" height="52.74" transform="translate(684.05 -506.18) rotate(90)" fill="#fff"/>
  <rect x="596.01" y="36.2" width="52.74" height="52.74" transform="translate(684.95 -559.82) rotate(90)" fill="none" stroke="#000" stroke-miterlimit="10" stroke-width="7"/>
  <rect x="354.01" y="111.2" width="88.49" height="88.49" rx="44.24" transform="translate(553.7 -242.82) rotate(90)" fill="none" stroke="#000" stroke-miterlimit="10" stroke-width="5"/>
  <rect x="341.32" y="98.5" width="113.88" height="113.88" rx="56.94" transform="translate(553.7 -242.82) rotate(90)" fill="none" stroke="#000" stroke-miterlimit="10" stroke-width="6"/>
  <line x1="325.5" y1="529" x2="265.5" y2="529" fill="none" stroke="#000" stroke-miterlimit="10" stroke-width="7"/>
  <line x1="295.5" y1="559" x2="295.5" y2="499" fill="none" stroke="#000" stroke-miterlimit="10" stroke-width="7"/>
  <rect x="79.59" y="356.59" width="11.82" height="101.32" transform="translate(-262.92 179.73) rotate(-45)"/>
  <rect x="34.84" y="401.34" width="101.32" height="11.82" transform="translate(-262.93 179.74) rotate(-45)"/>
  <rect x="71.17" y="392.92" width="28.66" height="28.66" transform="translate(313.01 58.82) rotate(45)" fill="#e0e1e2"/>
  <rect x="693.59" y="246.59" width="11.82" height="101.32" transform="translate(-5.31 581.68) rotate(-45)"/>
  <rect x="648.84" y="291.34" width="101.32" height="11.82" transform="translate(-5.31 581.68) rotate(-45)"/>
  <rect x="685.17" y="282.92" width="28.66" height="28.66" transform="translate(415.07 -407.56) rotate(45)" fill="#e0e1e2"/>
  <polygon points="78.67 83.27 47.5 137.25 109.84 137.25 78.67 83.27" fill="#fff"/>
  <polygon points="96.33 59.37 65.16 113.36 127.5 113.36 96.33 59.37" fill="none" stroke="#000" stroke-miterlimit="10" stroke-width="7"/>
  <text transform="translate(382.69 155.56) rotate(-45)" font-size="32" fill="#fff" font-family="Oceanwide-Semibold, Oceanwide" font-weight="600">3<tspan x="-20.82" y="32">S</tspan>
    <tspan x="-2.64" y="32" letter-spacing="-0.01em">E</tspan>
    <tspan x="15.41" y="32" letter-spacing="0em">C</tspan>
  </text>
</svg>