<svg width="17" height="26" viewBox="0 0 17 26" fill="white"
  xmlns="http://www.w3.org/2000/svg">
  <path d="M0.668953 4.60191C0.668953 4.01517 0.777146 3.50178 0.993533 3.06174C1.30118 2.4361 2.07747 2.24596 2.70679 1.94591L3.95572 1.35045C6.89549 -0.0511778 10.3108 -0.0511765 13.2506 1.35045L14.4995 1.94591C15.1288 2.24596 15.9051 2.4361 16.2128 3.06174C16.4292 3.50179 16.5374 4.01517 16.5374 4.60191L16.5374 20.737C16.5374 21.3237 16.4292 21.8371 16.2128 22.2772C15.9072 22.8986 15.1429 23.1288 14.5526 23.4907L13.2958 24.2611C10.4164 26.0262 6.78995 26.0262 3.91049 24.2611L2.65374 23.4907C2.06336 23.1288 1.2991 22.8986 0.993532 22.2772C0.777145 21.8371 0.668952 21.3237 0.668952 20.737L0.668953 4.60191ZM2.29186 6.87261C2.29186 6.72323 2.17076 6.60213 2.02137 6.60213C1.87199 6.60213 1.75089 6.72323 1.75089 6.87261L1.75089 18.4663C1.75089 18.6157 1.87199 18.7368 2.02137 18.7368C2.17076 18.7368 2.29186 18.6157 2.29186 18.4663L2.29186 6.87261ZM8.60315 4.60191C5.71506 4.60191 3.37379 6.94317 3.37379 9.83126L3.37379 15.5076C3.37379 18.3957 5.71506 20.737 8.60315 20.737C11.4912 20.737 13.8325 18.3957 13.8325 15.5076L13.8325 9.83126C13.8325 6.94317 11.4912 4.60191 8.60315 4.60191ZM15.1849 6.60213C15.0355 6.60213 14.9144 6.72323 14.9144 6.87261L14.9144 18.4663C14.9144 18.6157 15.0355 18.7368 15.1849 18.7368C15.3343 18.7368 15.4554 18.6157 15.4554 18.4663L15.4554 6.87261C15.4554 6.72323 15.3343 6.60213 15.1849 6.60213Z" fill="white"/>
</svg>
