<svg width="122.15" height="28.52" viewBox="0 0 205 48" fill="none" xmlns="http://www.w3.org/2000/svg">
<path fill-rule="evenodd" clip-rule="evenodd" d="M39.9829 17.7895C41.2694 14.6858 42.9343 13.6259 45.8858 12.339C47.7021 10.5222 47.9291 8.78105 46.1885 7.26702C45.8858 7.03992 45.6588 6.81281 45.2047 6.66141C44.7506 6.51001 43.9938 6.3586 43.3884 6.43431C42.4046 6.51001 41.4208 6.73711 40.5883 7.03992C38.9234 7.72123 37.5612 8.85675 36.7287 9.00815C36.0476 9.15956 35.9719 7.94833 36.3503 7.11562C36.426 6.88851 36.5017 6.81281 36.5773 6.73711C40.437 4.69317 43.3127 4.31467 46.7183 6.1315C47.9291 6.81281 48.6102 7.41842 49.5941 8.93245C53.0753 10.9007 59.3566 9.84087 61.7783 13.7773C60.189 12.6418 49.14 7.94833 42.0262 15.897C38.9234 22.7101 35.4422 21.6503 29.5392 24.5269C29.9933 21.9531 38.0152 21.0447 39.9829 17.7895Z" fill="#148DC6"/>
<path fill-rule="evenodd" clip-rule="evenodd" d="M5.62495 0C6.23038 0 7.2142 0 8.57642 0C14.9334 0.454208 20.3066 1.58973 26.4366 4.08788C29.0096 5.1477 33.2476 7.79724 35.1396 10.5982C35.0639 10.5982 34.9126 10.5982 34.8369 10.5982C30.1448 7.04023 23.031 4.01217 16.9011 4.23928C18.9444 6.20751 24.6203 17.1085 28.8583 17.1085C29.0096 17.2599 29.0853 17.3356 29.2367 17.487C24.4689 17.6384 23.5608 14.6104 20.3823 11.3552C14.6307 6.66172 9.10616 3.63367 1.15992 0.832715C0.857203 0.757014 0.554489 0.757014 1.08424 0.681313C2.2951 0.378507 4.0357 0.151403 5.62495 0Z" fill="#148DC6"/>
<path fill-rule="evenodd" clip-rule="evenodd" d="M21.1388 15.8974C15.2359 12.4908 9.10595 8.93282 2.52191 7.4188C3.80845 6.05617 12.2088 5.52626 12.5115 7.11599C12.2844 7.11599 11.9817 7.19169 11.7547 7.19169C11.3006 6.73748 8.50052 7.19169 7.59237 7.34309C6.98695 7.4945 6.91127 7.5702 6.98695 7.6459C12.8142 10.2954 12.8142 10.2954 15.0846 11.5067C15.1602 11.5824 15.5386 11.7338 15.5386 11.7338C15.6143 11.6581 15.5386 11.6581 15.4629 11.5067C15.0089 10.9768 15.0089 10.9768 13.1169 9.61414C10.8466 8.25151 10.8466 8.25151 10.7709 8.02441C11.7547 7.873 14.4791 7.34309 14.8575 8.55432C14.4791 8.63002 14.1764 8.78142 13.798 8.93282C16.1441 11.2039 18.4144 13.702 21.0632 15.5945C21.2145 15.6702 21.1388 15.746 21.1388 15.8974Z" fill="#148DC6"/>
<path fill-rule="evenodd" clip-rule="evenodd" d="M29.4641 15.1403C26.9667 13.5506 22.653 10.7496 22.653 7.26733C23.7125 7.41874 24.4693 7.57014 25.8315 7.87294C27.1937 8.25145 30.5236 9.23557 31.6587 10.5225C29.237 10.0683 27.0423 9.00847 24.5449 8.85706C24.5449 11.2038 28.1775 13.7777 29.8424 14.9889C29.6911 14.9889 29.6154 15.0646 29.4641 15.1403Z" fill="#148DC6"/>
<path fill-rule="evenodd" clip-rule="evenodd" d="M44.8262 7.72144C45.2803 7.72144 45.6586 8.02424 45.6586 8.40275C45.6586 8.78126 45.2803 9.08406 44.8262 9.08406C44.3721 9.08406 43.9937 8.78126 43.9937 8.40275C43.9937 8.02424 44.3721 7.72144 44.8262 7.72144Z" fill="#148DC6"/>
<path d="M126.635 10.2195C127.619 10.4466 128.073 10.9009 128.073 11.3551V12.0364C128.073 12.642 127.543 13.0205 126.408 13.1719C125.802 13.1719 125.424 12.642 125.197 11.6579C125.424 10.7494 125.878 10.2195 126.635 10.2195ZM126.635 17.9411C127.619 18.1682 128.073 18.6224 128.073 19.0766V46.102C128.073 46.7833 127.619 47.2375 126.635 47.3889H126.559C125.878 47.3889 125.424 46.859 125.197 45.7992V19.8336C125.424 18.5467 125.878 17.9411 126.635 17.9411ZM138.441 5.82886H138.592C139.5 6.05596 139.954 6.43447 139.954 7.04008V23.6187C143.889 19.7579 147.749 17.7897 151.609 17.7897C155.317 17.7897 158.722 19.228 161.75 22.1047C164.625 25.2084 166.139 28.6907 166.139 32.5514C166.139 38.0777 163.566 42.4683 158.42 45.6478C156.225 46.7833 154.03 47.3889 151.987 47.3889H151.079C147.219 47.3889 143.587 45.4964 140.181 41.787C138.138 38.9861 137.078 35.6552 137.078 31.7944V7.04008C137.078 6.43447 137.532 6.05596 138.441 5.82886ZM139.954 32.2486V32.8543C139.954 37.8505 142.452 41.4842 147.522 43.9067C148.884 44.3609 150.095 44.5123 151.23 44.5123H151.911C156.679 44.5123 160.236 41.9384 162.658 36.715C163.036 35.1253 163.263 33.9141 163.263 33.0057V32.3243C163.263 27.4038 160.69 23.6944 155.544 21.2719C153.955 20.8934 152.744 20.6663 151.836 20.6663H151.382C146.614 20.6663 143.057 23.2402 140.711 28.3122C140.181 29.7505 139.954 31.1131 139.954 32.2486ZM175.447 17.8654C176.431 18.0925 176.885 18.5467 176.885 19.0009V23.1645C180.821 19.6065 184.529 17.7897 188.01 17.7897C189.902 17.7897 191.87 18.2439 193.913 19.1523C194.291 19.5308 194.443 19.9093 194.443 20.2878V20.3635C194.291 21.3476 193.837 21.8019 193.08 21.8019C191.037 21.1205 189.524 20.8177 188.388 20.8177H187.783C183.167 20.8177 179.685 23.2402 177.566 28.1608C177.112 29.4477 176.885 30.9617 176.885 32.6271V45.9506C176.885 46.6319 176.431 47.0861 175.447 47.2375H175.372C174.691 47.2375 174.236 46.7076 174.009 45.6478V19.8336C174.236 18.5467 174.691 17.8654 175.447 17.8654ZM202.767 10.2195C203.751 10.4466 204.205 10.9009 204.205 11.3551V12.0364C204.205 12.642 203.675 13.0205 202.54 13.1719C201.935 13.1719 201.556 12.642 201.329 11.6579C201.632 10.7494 202.086 10.2195 202.767 10.2195ZM202.767 17.9411C203.751 18.1682 204.205 18.6224 204.205 19.0766V46.102C204.205 46.7833 203.751 47.2375 202.767 47.3889H202.692C202.011 47.3889 201.556 46.859 201.329 45.7992V19.8336C201.556 18.5467 202.011 17.9411 202.767 17.9411Z" fill="#148DC6"/>
<path d="M23.7876 26.5712C23.7876 28.1609 23.939 29.675 24.3174 31.1133C24.6958 31.7946 25.0742 32.3245 25.6039 32.4759C25.7553 32.5516 25.9066 32.5516 26.1337 32.4002C28.4797 30.5834 24.3174 22.6347 26.5877 20.288C26.7391 20.1366 26.8148 20.1366 26.9661 20.2123C27.4959 20.288 31.0528 33.3843 28.5554 38.6077C29.7662 39.8947 31.2041 41.1059 32.8691 42.1657C35.5935 43.604 38.2422 44.2853 40.891 44.2853H41.1937C44.5992 44.2853 47.9291 43.2255 51.2589 41.1059H51.6373C52.5455 41.333 52.9996 41.7115 52.9996 42.3928V42.6956C52.9996 43.9068 50.7292 45.2695 46.1128 46.6321C44.5992 47.0863 43.0857 47.3134 41.4207 47.3134H40.891C34.1556 47.3134 28.5554 44.1339 24.0147 37.775C21.8957 34.1414 20.8362 30.3563 20.8362 26.4955C20.8362 25.1329 20.9875 23.846 21.2903 22.8618C21.82 20.5151 23.5606 18.9254 24.0147 18.9254C24.6201 19.0011 23.7876 22.2562 23.7876 26.5712ZM74.6436 18.1684C80.0925 18.1684 84.3305 20.8936 87.509 26.3441C88.4928 28.5394 88.9469 30.8105 88.9469 33.1572V46.1779C88.9469 46.8592 88.4928 47.3134 87.509 47.4648H87.4333C86.8279 47.4648 86.3738 47.0863 86.0711 46.405V46.1779L86.2224 43.5283V41.6358C82.2872 45.4209 78.5789 47.3891 75.022 47.3891H74.1895C69.3461 47.3891 65.2595 44.891 62.081 39.8947C60.8701 37.5479 60.3404 35.1255 60.3404 32.6273C60.3404 27.1768 62.9891 22.8618 68.2109 19.6824C70.4056 18.6983 72.5246 18.1684 74.6436 18.1684ZM63.1405 32.5516V32.8544C63.1405 37.6236 65.4865 41.2573 70.1786 43.6797C71.6922 44.2096 73.0544 44.5124 74.1895 44.5124H75.022C78.9573 44.5124 82.2115 42.5442 84.7089 38.532C85.617 36.6395 86.0711 34.8227 86.0711 33.0815V32.6273C86.0711 28.0095 83.8764 24.5273 79.4114 22.1048C77.8221 21.3478 76.2329 21.045 74.5679 21.045H74.4923C69.7245 21.045 66.1676 23.5432 63.8216 28.6152C63.3675 30.1292 63.1405 31.4918 63.1405 32.5516ZM93.5632 10.2197C93.7146 10.2197 93.7903 10.2197 93.9416 10.2197C96.5904 10.7496 99.2391 13.3235 99.1635 16.8814V44.4367C99.3905 45.5723 99.3905 47.9947 97.7256 47.3891C97.0445 47.0863 96.5147 46.8592 96.3634 45.7994V17.6384C96.3634 14.5347 94.6984 12.8693 92.4281 12.0365C91.3686 11.5823 92.8821 10.2954 93.5632 10.2197ZM103.856 3.02808C104.007 3.02808 104.007 3.02808 104.234 3.02808C109.229 4.2393 113.164 9.00849 113.088 15.5945V44.5124C113.315 44.891 112.786 47.6919 111.65 47.4648C110.969 47.3134 110.44 46.9349 110.288 45.8751V15.7459C109.91 9.8412 108.245 7.04025 102.796 4.76921C101.661 4.3907 103.099 3.10378 103.856 3.02808Z" fill="#148DC6"/>
<path d="M75.0981 31.1133C76.082 31.3404 76.536 31.7946 76.536 32.2488V32.9301C76.536 33.5357 76.0063 33.9142 74.8711 34.0656C74.2657 34.0656 73.8873 33.5357 73.6602 32.5516C73.8873 31.5675 74.3414 31.1133 75.0981 31.1133Z" fill="#148DC6"/>
</svg>
